<svg width="20" height="20" viewBox="0 0 20 20" fill="none" xmlns="http://www.w3.org/2000/svg">
<path fill-rule="evenodd" clip-rule="evenodd" d="M7.45496 2.004C7.5677 2.09379 7.65219 2.21417 7.6983 2.35073C7.74441 2.48729 7.75019 2.63424 7.71496 2.774C7.38272 4.07796 7.43337 5.45006 7.86083 6.72598C8.28829 8.00191 9.07445 9.12759 10.1252 9.96824C11.1759 10.8089 12.4467 11.3289 13.7853 11.4659C15.1239 11.603 16.4737 11.3513 17.673 10.741C17.8014 10.6757 17.946 10.6487 18.0893 10.6634C18.2327 10.678 18.3688 10.7337 18.4813 10.8237C18.5939 10.9136 18.6781 11.0342 18.724 11.1708C18.7699 11.3074 18.7754 11.4543 18.74 11.594C18.3892 12.9713 17.6986 14.2386 16.7315 15.2801C15.7643 16.3216 14.5515 17.1039 13.2039 17.5555C11.8563 18.0071 10.417 18.1136 9.01755 17.8653C7.61816 17.6169 6.30338 17.0216 5.19349 16.1338C4.08361 15.246 3.21405 14.0941 2.66437 12.7835C2.11469 11.4728 1.90244 10.0452 2.04703 8.63132C2.19162 7.21742 2.68844 5.86236 3.49204 4.69008C4.29563 3.51781 5.38035 2.56575 6.64696 1.921C6.77539 1.85578 6.91988 1.82893 7.06317 1.84365C7.20645 1.85837 7.34247 1.91403 7.45496 2.004Z" fill="#0A0A0A"/>
</svg>
